<svg xmlns="http://www.w3.org/2000/svg" viewBox="0 0 200 200" role="img" aria-label="Cat avatar">
  <defs>
    <linearGradient id="tile" x1="0" y1="0" x2="0" y2="1">
      <stop offset="0" stop-color="#5BC4F2"/>
      <stop offset="1" stop-color="#2FA7E6"/>
    </linearGradient>
  </defs>
  <rect x="4" y="4" width="192" height="192" rx="46" fill="url(#tile)"/>
  <circle cx="100" cy="104" r="70" fill="#FFFFFF" opacity=".22"/>
  <circle cx="100" cy="104" r="70" fill="none" stroke="#FFFFFF" stroke-width="3" opacity=".4"/>
  <path d="M 46 41 Q 47.3 46.7 53 48 Q 47.3 49.3 46 55 Q 44.7 49.3 39 48 Q 44.7 46.7 46 41 Z" fill="#FFFFFF" opacity=".75"/>
  <path d="M 85 82 Q 87 50 70 43 Q 51 53 53 82 Z" fill="#FFFFFF" stroke="#4A3B43" stroke-width="3.5" stroke-linejoin="round"/>
  <path d="M 75 72 Q 76 57 69 53 Q 60 60 61 72 Z" fill="#FFC7D6"/>
  <path d="M 115 82 Q 113 50 130 43 Q 149 53 147 82 Z" fill="#FFFFFF" stroke="#4A3B43" stroke-width="3.5" stroke-linejoin="round"/>
  <path d="M 125 72 Q 124 57 131 53 Q 140 60 139 72 Z" fill="#FFC7D6"/>
  <ellipse cx="100" cy="114" rx="52" ry="49" fill="#FFFFFF" stroke="#4A3B43" stroke-width="3.5"/>
  <circle cx="78" cy="112" r="7.5" fill="#332B31"/>
  <circle cx="75.75" cy="109.45" r="2.6999999999999997" fill="#FFFFFF"/>
  <circle cx="80.4" cy="114.4" r="1.2" fill="#FFFFFF" opacity=".9"/>
  <circle cx="122" cy="112" r="7.5" fill="#332B31"/>
  <circle cx="119.75" cy="109.45" r="2.6999999999999997" fill="#FFFFFF"/>
  <circle cx="124.4" cy="114.4" r="1.2" fill="#FFFFFF" opacity=".9"/>
  <path d="M 94.5 127 Q 100 123.5 105.5 127 Q 101 134.0 100 134.5 Q 99 134.0 94.5 127 Z" fill="#FF8FA8"/>
  <path d="M 92 137 Q 96.0 143 100 139 Q 104.0 143 108 137" fill="none" stroke="#4A3B43" stroke-width="3.5" stroke-linecap="round" stroke-linejoin="round"/>
  <path d="M 58 122.5 L 46 121" fill="none" stroke="#4A3B43" stroke-width="2.5" stroke-linecap="round" opacity=".55"/>
  <path d="M 58 126.5 L 46 129" fill="none" stroke="#4A3B43" stroke-width="2.5" stroke-linecap="round" opacity=".55"/>
  <path d="M 142 122.5 L 154 121" fill="none" stroke="#4A3B43" stroke-width="2.5" stroke-linecap="round" opacity=".55"/>
  <path d="M 142 126.5 L 154 129" fill="none" stroke="#4A3B43" stroke-width="2.5" stroke-linecap="round" opacity=".55"/>
  <ellipse cx="64" cy="130" rx="8.5" ry="6.12" fill="#FFA3B5" opacity=".65"/>
  <ellipse cx="136" cy="130" rx="8.5" ry="6.12" fill="#FFA3B5" opacity=".65"/>

</svg>
