<svg xmlns="http://www.w3.org/2000/svg" viewBox="0 0 200 200" role="img" aria-label="Mouse avatar">
  <defs>
    <linearGradient id="tile" x1="0" y1="0" x2="0" y2="1">
      <stop offset="0" stop-color="#C0A6F7"/>
      <stop offset="1" stop-color="#9F7CEF"/>
    </linearGradient>
  </defs>
  <rect x="4" y="4" width="192" height="192" rx="46" fill="url(#tile)"/>
  <circle cx="100" cy="104" r="70" fill="#FFFFFF" opacity=".22"/>
  <circle cx="100" cy="104" r="70" fill="none" stroke="#FFFFFF" stroke-width="3" opacity=".4"/>
  <path d="M 154 40 Q 155.3 44.7 160 46 Q 155.3 47.3 154 52 Q 152.7 47.3 148 46 Q 152.7 44.7 154 40 Z" fill="#FFFFFF" opacity=".75"/>
  <circle cx="56" cy="68" r="25" fill="#FFFFFF" stroke="#4A3B43" stroke-width="3.5"/>
  <circle cx="56" cy="70.5" r="14.499999999999998" fill="#FFC7D6"/>
  <circle cx="144" cy="68" r="25" fill="#FFFFFF" stroke="#4A3B43" stroke-width="3.5"/>
  <circle cx="144" cy="70.5" r="14.499999999999998" fill="#FFC7D6"/>
  <ellipse cx="100" cy="118" rx="48" ry="45" fill="#FFFFFF" stroke="#4A3B43" stroke-width="3.5"/>
  <circle cx="80" cy="115" r="7" fill="#332B31"/>
  <circle cx="77.9" cy="112.62" r="2.52" fill="#FFFFFF"/>
  <circle cx="82.24" cy="117.24" r="1.12" fill="#FFFFFF" opacity=".9"/>
  <circle cx="120" cy="115" r="7" fill="#332B31"/>
  <circle cx="117.9" cy="112.62" r="2.52" fill="#FFFFFF"/>
  <circle cx="122.24" cy="117.24" r="1.12" fill="#FFFFFF" opacity=".9"/>
  <path d="M 95 129 Q 100 125.5 105 129 Q 101 135.5 100 136 Q 99 135.5 95 129 Z" fill="#FF8FA8"/>
  <path d="M 58 126.5 L 46 125" fill="none" stroke="#4A3B43" stroke-width="2.5" stroke-linecap="round" opacity=".45"/>
  <path d="M 58 130.5 L 46 133" fill="none" stroke="#4A3B43" stroke-width="2.5" stroke-linecap="round" opacity=".45"/>
  <path d="M 142 126.5 L 154 125" fill="none" stroke="#4A3B43" stroke-width="2.5" stroke-linecap="round" opacity=".45"/>
  <path d="M 142 130.5 L 154 133" fill="none" stroke="#4A3B43" stroke-width="2.5" stroke-linecap="round" opacity=".45"/>
  <path d="M 94.5 141 Q 100 145.95 105.5 141" fill="none" stroke="#4A3B43" stroke-width="3.5" stroke-linecap="round"/>
  <ellipse cx="66" cy="131" rx="8.5" ry="6.12" fill="#FFA3B5" opacity=".65"/>
  <ellipse cx="134" cy="131" rx="8.5" ry="6.12" fill="#FFA3B5" opacity=".65"/>

</svg>
