<svg xmlns="http://www.w3.org/2000/svg" viewBox="0 0 200 200" role="img" aria-label="Raccoon avatar">
  <defs>
    <linearGradient id="tile" x1="0" y1="0" x2="0" y2="1">
      <stop offset="0" stop-color="#4FD69A"/>
      <stop offset="1" stop-color="#22BD7E"/>
    </linearGradient>
  </defs>
  <rect x="4" y="4" width="192" height="192" rx="46" fill="url(#tile)"/>
  <circle cx="100" cy="104" r="70" fill="#FFFFFF" opacity=".22"/>
  <circle cx="100" cy="104" r="70" fill="none" stroke="#FFFFFF" stroke-width="3" opacity=".4"/>
  <path d="M 152 42 Q 153.3 46.7 158 48 Q 153.3 49.3 152 54 Q 150.7 49.3 146 48 Q 150.7 46.7 152 42 Z" fill="#FFFFFF" opacity=".75"/>
  <circle cx="62" cy="72" r="18" fill="#C3CAD2" stroke="#4A3B43" stroke-width="3.5"/>
  <circle cx="62" cy="73.8" r="9.36" fill="#E8EDF1"/>
  <circle cx="138" cy="72" r="18" fill="#C3CAD2" stroke="#4A3B43" stroke-width="3.5"/>
  <circle cx="138" cy="73.8" r="9.36" fill="#E8EDF1"/>
  <ellipse cx="100" cy="114" rx="52" ry="49" fill="#C9D0D8" stroke="#4A3B43" stroke-width="3.5"/>
  <ellipse cx="100" cy="134" rx="32" ry="23" fill="#F4F6F8"/>
  <ellipse cx="77" cy="111" rx="17" ry="13" fill="#5E646D" transform="rotate(10 77 111)"/>
  <ellipse cx="123" cy="111" rx="17" ry="13" fill="#5E646D" transform="rotate(-10 123 111)"/>
  <circle cx="77" cy="111" r="7" fill="#332B31"/>
  <circle cx="74.9" cy="108.62" r="2.52" fill="#FFFFFF"/>
  <circle cx="79.24" cy="113.24" r="1.12" fill="#FFFFFF" opacity=".9"/>
  <circle cx="123" cy="111" r="7" fill="#332B31"/>
  <circle cx="120.9" cy="108.62" r="2.52" fill="#FFFFFF"/>
  <circle cx="125.24" cy="113.24" r="1.12" fill="#FFFFFF" opacity=".9"/>
  <path d="M 94.5 128 Q 100 124.5 105.5 128 Q 101 135.0 100 135.5 Q 99 135.0 94.5 128 Z" fill="#332B31"/>
  <path d="M 93.5 141 Q 100 146.85 106.5 141" fill="none" stroke="#4A3B43" stroke-width="3.5" stroke-linecap="round"/>
  <ellipse cx="60" cy="128" rx="8.5" ry="6.12" fill="#FFA3B5" opacity=".65"/>
  <ellipse cx="140" cy="128" rx="8.5" ry="6.12" fill="#FFA3B5" opacity=".65"/>

</svg>
