<svg xmlns="http://www.w3.org/2000/svg" viewBox="0 0 200 200" role="img" aria-label="Red panda avatar">
  <defs>
    <linearGradient id="tile" x1="0" y1="0" x2="0" y2="1">
      <stop offset="0" stop-color="#FF6E61"/>
      <stop offset="1" stop-color="#E84A3C"/>
    </linearGradient>
  </defs>
  <rect x="4" y="4" width="192" height="192" rx="46" fill="url(#tile)"/>
  <circle cx="100" cy="104" r="70" fill="#FFFFFF" opacity=".22"/>
  <circle cx="100" cy="104" r="70" fill="none" stroke="#FFFFFF" stroke-width="3" opacity=".4"/>
  <path d="M 154 44 Q 155.3 48.7 160 50 Q 155.3 51.3 154 56 Q 152.7 51.3 148 50 Q 152.7 48.7 154 44 Z" fill="#FFFFFF" opacity=".75"/>
  <circle cx="62" cy="70" r="19" fill="#EF8A55" stroke="#4A3B43" stroke-width="3.5"/>
  <circle cx="62" cy="71.9" r="9.88" fill="#FFE7D1"/>
  <circle cx="138" cy="70" r="19" fill="#EF8A55" stroke="#4A3B43" stroke-width="3.5"/>
  <circle cx="138" cy="71.9" r="9.88" fill="#FFE7D1"/>
  <ellipse cx="100" cy="114" rx="52" ry="49" fill="#F49B63" stroke="#4A3B43" stroke-width="3.5"/>
  <ellipse cx="68" cy="126" rx="16" ry="20" fill="#FFEFE0"/>
  <ellipse cx="132" cy="126" rx="16" ry="20" fill="#FFEFE0"/>
  <ellipse cx="81" cy="89" rx="7" ry="5" fill="#FFEFE0"/>
  <ellipse cx="119" cy="89" rx="7" ry="5" fill="#FFEFE0"/>
  <ellipse cx="100" cy="136" rx="18" ry="14" fill="#FFF6EC"/>
  <circle cx="79" cy="112" r="7.5" fill="#332B31"/>
  <circle cx="76.75" cy="109.45" r="2.6999999999999997" fill="#FFFFFF"/>
  <circle cx="81.4" cy="114.4" r="1.2" fill="#FFFFFF" opacity=".9"/>
  <circle cx="121" cy="112" r="7.5" fill="#332B31"/>
  <circle cx="118.75" cy="109.45" r="2.6999999999999997" fill="#FFFFFF"/>
  <circle cx="123.4" cy="114.4" r="1.2" fill="#FFFFFF" opacity=".9"/>
  <path d="M 94.5 129 Q 100 125.5 105.5 129 Q 101 136.0 100 136.5 Q 99 136.0 94.5 129 Z" fill="#4A2F1B"/>
  <path d="M 92 139 Q 96.0 145 100 141 Q 104.0 145 108 139" fill="none" stroke="#4A2F1B" stroke-width="3.5" stroke-linecap="round" stroke-linejoin="round"/>
  <ellipse cx="64" cy="130" rx="8.5" ry="6.12" fill="#FF9AA8" opacity=".6"/>
  <ellipse cx="136" cy="130" rx="8.5" ry="6.12" fill="#FF9AA8" opacity=".6"/>

</svg>
