<svg xmlns="http://www.w3.org/2000/svg" viewBox="0 0 64 64" role="img" aria-label="Signal Bridge">
  <rect width="64" height="64" rx="14" fill="#0f172a"/>
  <path
    d="M14 48 V28 M50 48 V28 M14 28 C14 16 50 16 50 28"
    fill="none"
    stroke="#38bdf8"
    stroke-width="3.2"
    stroke-linecap="round"
    stroke-linejoin="round"
  />
  <path
    d="M18 36 H46"
    fill="none"
    stroke="#38bdf8"
    stroke-width="2.4"
    stroke-linecap="round"
  />
  <path
    d="M22 24 C25 20 27 28 30 24 C33 20 35 28 38 24 C41 20 43 28 46 24"
    fill="none"
    stroke="#7dd3fc"
    stroke-width="2.2"
    stroke-linecap="round"
    stroke-linejoin="round"
  />
  <path
    d="M24 30 C26.5 27 28 33 30.5 30 C33 27 34.5 33 37 30 C39.5 27 41 33 43.5 30"
    fill="none"
    stroke="#38bdf8"
    stroke-width="1.8"
    stroke-linecap="round"
    opacity="0.85"
  />
</svg>
